<svg width="320" height="220" viewBox="0 0 320 220" fill="none" xmlns="http://www.w3.org/2000/svg">
  <defs>
    <linearGradient id="sky" x1="26" y1="24" x2="292" y2="196" gradientUnits="userSpaceOnUse">
      <stop stop-color="#f8f4ea" />
      <stop offset="0.52" stop-color="#e8eddc" />
      <stop offset="1" stop-color="#cfd7c8" />
    </linearGradient>
    <radialGradient id="glow" cx="0" cy="0" r="1" gradientUnits="userSpaceOnUse" gradientTransform="translate(246 38) rotate(90) scale(66 66)">
      <stop stop-color="#ffffff" stop-opacity="0.9" />
      <stop offset="1" stop-color="#ffffff" stop-opacity="0" />
    </radialGradient>
    <linearGradient id="towerA" x1="0" y1="84" x2="0" y2="184" gradientUnits="userSpaceOnUse">
      <stop stop-color="#32495f" />
      <stop offset="1" stop-color="#132131" />
    </linearGradient>
    <linearGradient id="towerB" x1="0" y1="88" x2="0" y2="184" gradientUnits="userSpaceOnUse">
      <stop stop-color="#203245" />
      <stop offset="1" stop-color="#0f1a28" />
    </linearGradient>
    <linearGradient id="wire" x1="28" y1="0" x2="290" y2="0" gradientUnits="userSpaceOnUse">
      <stop stop-color="#a3ea58" />
      <stop offset="1" stop-color="#eef4e8" />
    </linearGradient>
    <filter id="grain" x="-10%" y="-10%" width="120%" height="120%">
      <feTurbulence type="fractalNoise" baseFrequency="0.9" numOctaves="2" seed="7" result="noise" />
      <feColorMatrix in="noise" type="saturate" values="0" />
      <feComponentTransfer>
        <feFuncA type="table" tableValues="0 0.06" />
      </feComponentTransfer>
    </filter>
    <filter id="shadow" x="-20%" y="-20%" width="140%" height="140%">
      <feGaussianBlur stdDeviation="6" />
    </filter>
  </defs>

  <rect width="320" height="220" rx="24" fill="url(#sky)" />
  <rect width="320" height="220" rx="24" fill="url(#glow)" />
  <g opacity="0.9">
    <ellipse cx="88" cy="56" rx="47" ry="22" fill="#fbfdf9" />
    <ellipse cx="119" cy="48" rx="25" ry="18" fill="#eef4e8" />
    <ellipse cx="212" cy="68" rx="42" ry="20" fill="#ecf2e5" />
    <ellipse cx="248" cy="63" rx="26" ry="15" fill="#ffffff" />
  </g>
  <g opacity="0.14">
    <circle cx="250" cy="40" r="58" fill="#98e34c" />
  </g>
  <g opacity="0.14" stroke="#2d4718" stroke-dasharray="4 9">
    <path d="M28 160H292" />
    <path d="M28 132H292" />
    <path d="M28 104H292" />
  </g>

  <path d="M22 182C74 150 118 190 164 170C211 148 246 168 298 130V220H22Z" fill="#f2eee4" />
  <ellipse cx="87" cy="180" rx="28" ry="9" fill="#172436" opacity="0.12" filter="url(#shadow)" />
  <ellipse cx="148" cy="180" rx="36" ry="10" fill="#172436" opacity="0.1" filter="url(#shadow)" />
  <ellipse cx="218" cy="178" rx="34" ry="10" fill="#172436" opacity="0.1" filter="url(#shadow)" />

  <rect x="42" y="122" width="40" height="58" rx="8" fill="#213043" />
  <rect x="89" y="96" width="50" height="84" rx="8" fill="url(#towerA)" />
  <rect x="146" y="84" width="56" height="96" rx="8" fill="#24384c" />
  <rect x="210" y="106" width="38" height="74" rx="8" fill="#2d4718" />
  <rect x="252" y="116" width="24" height="64" rx="8" fill="url(#towerB)" />

  <g fill="#dfe9d5" opacity="0.34">
    <rect x="48" y="130" width="28" height="2" rx="1" />
    <rect x="48" y="140" width="22" height="2" rx="1" />
    <rect x="98" y="108" width="34" height="2" rx="1" />
    <rect x="98" y="118" width="24" height="2" rx="1" />
    <rect x="154" y="98" width="38" height="2" rx="1" />
    <rect x="154" y="108" width="26" height="2" rx="1" />
    <rect x="216" y="118" width="22" height="2" rx="1" />
  </g>
  <g fill="#9be64f">
    <rect x="50" y="148" width="22" height="4" rx="2" opacity="0.82" />
    <rect x="100" y="126" width="28" height="4" rx="2" opacity="0.8" />
    <rect x="156" y="116" width="34" height="4" rx="2" opacity="0.88" />
    <rect x="216" y="126" width="18" height="4" rx="2" opacity="0.8" />
    <rect x="256" y="138" width="12" height="4" rx="2" opacity="0.72" />
  </g>

  <path d="M24 186C82 154 120 166 160 150C206 132 244 156 296 124" stroke="#6b8452" stroke-width="2.5" stroke-linecap="round" opacity="0.58" />
  <path d="M34 176C74 142 118 170 156 148C196 124 232 148 286 96" stroke="url(#wire)" stroke-width="4" stroke-linecap="round" />
  <path d="M36 186C88 148 118 206 162 176C208 144 244 180 290 142" stroke="#172436" stroke-opacity="0.18" stroke-width="8" stroke-linecap="round" />
  <path d="M92 34C132 40 156 52 178 78C197 100 222 108 260 104" stroke="#f5f3ea" stroke-width="10" stroke-linecap="round" opacity="0.74" />
  <circle cx="86" cy="78" r="3.5" fill="#9be64f" opacity="0.9" />
  <circle cx="214" cy="52" r="4.5" fill="#172436" opacity="0.55" />
  <rect width="320" height="220" rx="24" fill="url(#glow)" filter="url(#grain)" opacity="0.85" />
</svg>
