<svg width="320" height="220" viewBox="0 0 320 220" fill="none" xmlns="http://www.w3.org/2000/svg">
  <defs>
    <linearGradient id="bg" x1="34" y1="18" x2="286" y2="202" gradientUnits="userSpaceOnUse">
      <stop stop-color="#fcf7ef" />
      <stop offset="0.5" stop-color="#ebe4d5" />
      <stop offset="1" stop-color="#d8e0d0" />
    </linearGradient>
    <linearGradient id="fall" x1="56" y1="60" x2="266" y2="166" gradientUnits="userSpaceOnUse">
      <stop stop-color="#cb6c4a" />
      <stop offset="1" stop-color="#7b2815" />
    </linearGradient>
    <linearGradient id="rise" x1="56" y1="54" x2="264" y2="108" gradientUnits="userSpaceOnUse">
      <stop stop-color="#9be64f" />
      <stop offset="1" stop-color="#f2f7ee" />
    </linearGradient>
    <filter id="grain" x="-10%" y="-10%" width="120%" height="120%">
      <feTurbulence type="fractalNoise" baseFrequency="0.85" numOctaves="2" seed="5" />
      <feColorMatrix type="saturate" values="0" />
      <feComponentTransfer>
        <feFuncA type="table" tableValues="0 0.05" />
      </feComponentTransfer>
    </filter>
  </defs>

  <rect width="320" height="220" rx="24" fill="url(#bg)" />
  <g opacity="0.16">
    <path d="M34 48H286M34 88H286M34 128H286M34 168H286" stroke="#172436" />
  </g>
  <path d="M34 172C70 150 104 158 132 144C180 122 226 156 286 126" stroke="#f5efe4" stroke-width="18" stroke-linecap="round" opacity="0.82" />
  <path d="M48 152C84 144 120 152 154 132C194 108 228 126 272 98" stroke="url(#rise)" stroke-width="4" stroke-linecap="round" />
  <path d="M38 184C76 164 116 176 150 156C190 134 230 156 282 132" stroke="#6f8452" stroke-width="2.5" stroke-linecap="round" opacity="0.58" />

  <g>
    <rect x="64" y="102" width="40" height="72" rx="8" fill="#172436" />
    <rect x="114" y="86" width="44" height="88" rx="8" fill="#2d4718" />
    <rect x="168" y="112" width="44" height="62" rx="8" fill="#31485d" />
    <rect x="222" y="74" width="42" height="100" rx="8" fill="#23384e" />
    <g fill="#e9efdf" opacity="0.25">
      <rect x="72" y="114" width="24" height="2" rx="1" />
      <rect x="122" y="96" width="28" height="2" rx="1" />
      <rect x="176" y="122" width="28" height="2" rx="1" />
      <rect x="230" y="86" width="26" height="2" rx="1" />
    </g>
  </g>
  <path d="M56 64C92 80 120 66 150 104C188 152 214 130 266 166" stroke="url(#fall)" stroke-width="8" stroke-linecap="round" />
  <path d="M56 54L104 80L152 72L196 128L264 108" stroke="#9be64f" stroke-width="4" stroke-linecap="round" />
  <path d="M60 52L98 70L132 64L160 86L188 84L220 108L258 100" stroke="#172436" stroke-opacity="0.18" stroke-width="3" stroke-linecap="round" />
  <path d="M56 146L88 122L124 132L160 112L196 142L234 102L266 118" stroke="#172436" stroke-width="3" stroke-opacity="0.2" stroke-linecap="round" />

  <g fill="#fffaf0" opacity="0.92">
    <circle cx="104" cy="82" r="5" />
    <circle cx="152" cy="72" r="5" />
    <circle cx="198" cy="130" r="5" />
    <circle cx="264" cy="108" r="5" />
  </g>
  <g opacity="0.75">
    <circle cx="104" cy="82" r="12" stroke="#fffaf0" stroke-opacity="0.22" />
    <circle cx="198" cy="130" r="13" stroke="#9be64f" stroke-opacity="0.28" />
  </g>

  <path d="M90 58L126 74L152 72L180 102L220 96L262 118" stroke="#172436" stroke-opacity="0.16" stroke-width="3" stroke-linecap="round" />
  <rect width="320" height="220" rx="24" fill="url(#bg)" filter="url(#grain)" opacity="0.75" />
</svg>
